HIERARCHY
ROOT Hips
{
 OFFSET 0.000000 0.000000 0.000000
 CHANNELS 6 Xposition Yposition Zposition Yrotation Xrotation Zrotation
 JOINT Chest
 {
  OFFSET 0.000000 9.585900 0.002600
  CHANNELS 3 Yrotation Xrotation Zrotation
  JOINT Chest2
  {
   OFFSET 0.000000 9.601200 -0.005300
   CHANNELS 3 Yrotation Xrotation Zrotation
   JOINT Chest3
   {
    OFFSET 0.000000 9.561800 0.000000
    CHANNELS 3 Yrotation Xrotation Zrotation
    JOINT Chest4
    {
     OFFSET 0.000000 9.552100 0.000000
     CHANNELS 3 Yrotation Xrotation Zrotation
     JOINT Neck
     {
      OFFSET 0.000000 14.453000 0.000000
      CHANNELS 3 Yrotation Xrotation Zrotation
      JOINT Head
      {
       OFFSET 0.000000 8.936500 -0.011300
       CHANNELS 3 Yrotation Xrotation Zrotation
       End Site
       {
        OFFSET 0.000000 17.073600 -0.006000
       }
      }
     }
     JOINT RightCollar
     {
      OFFSET -2.921100 9.558500 0.000000
      CHANNELS 3 Yrotation Xrotation Zrotation
      JOINT RightShoulder
      {
       OFFSET -13.519700 0.000000 0.000000
       CHANNELS 3 Yrotation Xrotation Zrotation
       JOINT RightElbow
       {
        OFFSET 0.000000 -29.696600 0.000000
        CHANNELS 3 Yrotation Xrotation Zrotation
        JOINT RightWrist
        {
         OFFSET 0.000000 -24.004700 0.000000
         CHANNELS 3 Yrotation Xrotation Zrotation
         End Site
         {
          OFFSET 0.000000 -17.728500 0.000000
         }
        }
       }
      }
     }
     JOINT LeftCollar
     {
      OFFSET 2.921100 9.558500 0.000000
      CHANNELS 3 Yrotation Xrotation Zrotation
      JOINT LeftShoulder
      {
       OFFSET 13.519700 0.000000 0.000000
       CHANNELS 3 Yrotation Xrotation Zrotation
       JOINT LeftElbow
       {
        OFFSET 0.000000 -29.696600 0.000000
        CHANNELS 3 Yrotation Xrotation Zrotation
        JOINT LeftWrist
        {
         OFFSET 0.000000 -24.004700 0.000000
         CHANNELS 3 Yrotation Xrotation Zrotation
         End Site
         {
          OFFSET 0.000000 -17.728500 0.000000
         }
        }
       }
      }
     }
    }
   }
  }
 }
 JOINT RightHip
 {
  OFFSET -7.771700 -0.012900 -0.001300
  CHANNELS 3 Yrotation Xrotation Zrotation
  JOINT RightKnee
  {
   OFFSET 0.000000 -40.869800 0.001200
   CHANNELS 3 Yrotation Xrotation Zrotation
   JOINT RightAnkle
   {
    OFFSET 0.000000 -39.717900 0.002100
    CHANNELS 3 Yrotation Xrotation Zrotation
    JOINT RightToe
    {
     OFFSET 0.000000 -4.965400 11.033500
     CHANNELS 3 Yrotation Xrotation Zrotation
     End Site
     {
      OFFSET 0.000000 -1.423100 5.872300
     }
    }
   }
  }
 }
 JOINT LeftHip
 {
  OFFSET 7.771700 -0.012900 -0.001300
  CHANNELS 3 Yrotation Xrotation Zrotation
  JOINT LeftKnee
  {
   OFFSET 0.000000 -40.869800 0.001200
   CHANNELS 3 Yrotation Xrotation Zrotation
   JOINT LeftAnkle
   {
    OFFSET 0.000000 -39.717900 0.002100
    CHANNELS 3 Yrotation Xrotation Zrotation
    JOINT LeftToe
    {
     OFFSET 0.000000 -4.965400 11.033500
     CHANNELS 3 Yrotation Xrotation Zrotation
     End Site
     {
      OFFSET 0.000000 -1.423100 5.872300
     }
    }
   }
  }
 }
}
MOTION
Frames: 11
Frame Time: 0.008333
-239.594041 57.715684 21.430161 175.043512 -52.897999 -3.637726 4.254728 23.360621 3.777706 2.188434 13.383358 1.908792 2.837775 16.735098 2.479501 2.190754 13.387572 1.907860 0.257408 17.263611 3.075406 -0.530222 -3.661161 5.558299 3.000556 2.154428 1.108765 3.415851 -18.289562 -13.258900 -78.750160 -46.945812 136.195768 4.573354 -2.614578 -21.576933 -11.373596 -0.618038 -0.768021 -1.701823 -14.825095 12.385000 63.255594 -41.024523 -127.762970 6.773252 -7.811082 6.586559 8.140529 -18.878424 0.614469 -44.424887 71.682032 -47.639360 3.254097 -13.603260 12.887794 -0.003976 -0.005702 0.002560 -10.806126 -16.529624 8.753948 55.214575 81.296392 56.408928 0.166359 -17.798684 -22.703243 0.004100 0.014286 0.004459
-239.595659 57.716059 21.429912 175.036484 -52.899750 -3.634865 4.254900 23.355248 3.780711 2.184428 13.377308 1.910225 2.832930 16.729730 2.481915 2.188647 13.383218 1.908915 0.299807 17.263890 3.053680 -0.466136 -3.651457 5.516225 3.009465 2.169772 1.093203 3.392957 -18.276261 -13.246969 -78.530525 -46.858608 136.081508 4.453070 -2.616593 -21.487518 -11.364249 -0.619906 -0.766239 -1.660609 -14.796064 12.362275 63.222951 -41.036104 -127.768105 6.753278 -7.726892 6.415552 8.138794 -18.875553 0.617614 -44.413169 71.683575 -47.631004 3.254335 -13.606850 12.884283 0.003300 -0.006907 0.004294 -10.801955 -16.527236 8.754848 55.215912 81.292944 56.410375 0.166699 -17.797130 -22.701412 0.002281 0.014256 0.002530
-239.597703 57.716622 21.429485 175.037486 -52.902223 -3.634952 4.252882 23.355547 3.780272 2.177404 13.366276 1.913032 2.829994 16.725080 2.482069 2.185726 13.379473 1.909769 0.320423 17.277816 3.039895 -0.429746 -3.649218 5.493474 3.016440 2.183121 1.080418 3.342618 -18.262149 -13.224742 -78.294828 -46.773431 135.975636 4.342628 -2.619731 -21.401842 -11.353217 -0.621363 -0.762284 -1.633087 -14.769490 12.343233 63.197354 -41.044486 -127.774157 6.735694 -7.647939 6.256062 8.135528 -18.872722 0.617700 -44.413113 71.684998 -47.632457 3.250552 -13.607835 12.881257 0.003281 -0.008044 0.005610 -10.798563 -16.525244 8.748578 55.228770 81.287149 56.427274 0.160693 -17.797822 -22.698388 0.008725 0.013840 0.000670
-239.598999 57.717160 21.429086 175.034994 -52.904950 -3.635778 4.249114 23.349342 3.783188 2.175826 13.364492 1.913851 2.817082 16.700778 2.491761 2.188212 13.395836 1.900731 0.341074 17.289806 3.025137 -0.311051 -3.657105 5.421016 3.015619 2.186107 1.063841 3.242124 -18.232283 -13.177987 -78.032840 -46.697857 135.894232 4.240232 -2.623086 -21.315256 -11.341983 -0.622989 -0.760969 -1.623157 -14.748405 12.326313 63.175848 -41.045947 -127.769821 6.714848 -7.563050 6.099411 8.133511 -18.871260 0.621903 -44.413502 71.685924 -47.634505 3.248150 -13.607392 12.879677 0.002868 -0.009603 0.005507 -10.795874 -16.522398 8.748789 55.261667 81.278855 56.462070 0.156679 -17.794703 -22.698943 0.007601 0.012215 -0.000248
-239.599881 57.718098 21.428264 175.027463 -52.911567 -3.633932 4.241696 23.336710 3.789730 2.183842 13.380240 1.908239 2.810986 16.688621 2.497394 2.178954 13.370713 1.913485 0.378893 17.312054 2.992968 -0.206889 -3.653007 5.352889 3.021551 2.206842 1.035141 3.195963 -18.203559 -13.147426 -77.814452 -46.620185 135.787888 4.140927 -2.624990 -21.220142 -11.326548 -0.600443 -0.782495 -1.598730 -14.728730 12.320584 63.145445 -41.036228 -127.778114 6.690502 -7.469599 5.936968 8.135751 -18.865952 0.627534 -44.414255 71.687219 -47.634883 3.245492 -13.611221 12.874942 0.004126 -0.006636 0.008957 -10.791226 -16.515172 8.751008 55.270842 81.283083 56.470513 0.168004 -17.796576 -22.701460 0.003922 0.012577 0.001236
-239.601353 57.718679 21.427383 175.021110 -52.916648 -3.628693 4.237617 23.334409 3.786598 2.185251 13.375915 1.915389 2.803031 16.687504 2.492810 2.176794 13.368205 1.914408 0.454608 17.299654 2.964884 -0.162664 -3.635740 5.320641 3.014492 2.194284 1.024559 3.165747 -18.165582 -13.120715 -77.617601 -46.540605 135.691195 4.044798 -2.618519 -21.116936 -11.315342 -0.590014 -0.791604 -1.553764 -14.715162 12.330497 63.103570 -41.018305 -127.806758 6.661891 -7.375193 5.771703 8.137873 -18.863395 0.628086 -44.421461 71.694858 -47.639519 3.239183 -13.617975 12.867472 0.006587 -0.006011 0.010881 -10.784827 -16.509287 8.748045 55.252187 81.286733 56.453503 0.167342 -17.796420 -22.702027 0.011639 0.009231 0.003520
-239.601646 57.718999 21.426684 175.016191 -52.920265 -3.631077 4.233112 23.330625 3.787494 2.185421 13.373041 1.916726 2.805019 16.691696 2.492708 2.167745 13.359647 1.918077 0.496772 17.302530 2.944000 -0.077618 -3.632660 5.267826 3.026158 2.206584 1.015412 3.145652 -18.157406 -13.108796 -77.449513 -46.452775 135.596333 3.952274 -2.601849 -21.012358 -11.303105 -0.592427 -0.785230 -1.527983 -14.693795 12.316996 63.073011 -41.010540 -127.820739 6.629968 -7.280779 5.604672 8.142307 -18.862491 0.636229 -44.431141 71.698666 -47.643831 3.231034 -13.620039 12.861464 0.004623 -0.009228 0.009659 -10.779255 -16.505492 8.748246 55.263330 81.284170 56.469810 0.167333 -17.796629 -22.701710 -0.000885 0.010186 0.001686
-239.602306 57.718887 21.426042 175.015570 -52.921764 -3.634180 4.231312 23.329930 3.789329 2.176289 13.367142 1.915004 2.809086 16.694126 2.493134 2.161743 13.352517 1.923115 0.538331 17.304540 2.922616 0.006476 -3.631164 5.214239 3.031939 2.212171 1.003778 3.094032 -18.135305 -13.078260 -77.277323 -46.377244 135.530653 3.858844 -2.579434 -20.905050 -11.293777 -0.592230 -0.781483 -1.508858 -14.677485 12.304336 63.054018 -41.004508 -127.832347 6.596236 -7.179900 5.433141 8.141697 -18.862059 0.640376 -44.437182 71.703241 -47.648065 3.224632 -13.625123 12.856003 0.007432 -0.008200 0.012797 -10.776469 -16.503999 8.750479 55.251862 81.290756 56.463117 0.168729 -17.799561 -22.702155 -0.001435 0.009959 0.001577
-239.603436 57.718331 21.425541 175.021440 -52.920654 -3.639266 4.225189 23.327655 3.788835 2.164477 13.358902 1.917296 2.808113 16.694687 2.490969 2.167013 13.356943 1.920735 0.558501 17.305244 2.911943 0.107056 -3.634896 5.151783 3.017964 2.202581 0.989168 3.047646 -18.104710 -13.034942 -77.107543 -46.307808 135.466503 3.767498 -2.555002 -20.788438 -11.310590 -0.609124 -0.759353 -1.476107 -14.654490 12.276124 63.048783 -41.001969 -127.836307 6.561527 -7.074318 5.259790 8.137068 -18.863082 0.640973 -44.445494 71.708407 -47.657209 3.222277 -13.635141 12.850455 0.006782 -0.005014 0.016817 -10.778290 -16.505342 8.750477 55.234443 81.291494 56.448629 0.164582 -17.800187 -22.701080 0.006753 0.009538 0.001300
-239.602921 57.716893 21.425969 175.023479 -52.913050 -3.651241 4.219596 23.318228 3.793709 2.166961 13.357470 1.920274 2.801824 16.685252 2.498225 2.171565 13.364728 1.914056 0.577455 17.305695 2.901650 0.213039 -3.636758 5.089640 3.012654 2.201767 0.980742 3.027888 -18.092119 -13.017635 -76.953396 -46.225609 135.377835 3.687032 -2.528727 -20.660744 -11.322048 -0.615961 -0.755054 -1.444985 -14.629607 12.271666 63.045491 -41.004169 -127.853131 6.523522 -6.981835 5.088253 8.132169 -18.876048 0.652382 -44.461886 71.712973 -47.675679 3.231051 -13.639399 12.848319 0.007379 -0.007977 0.015817 -10.781971 -16.511874 8.761935 55.211727 81.291995 56.428226 0.174427 -17.797420 -22.705893 0.001319 0.012835 0.003152
-239.603598 57.715498 21.426204 175.019057 -52.906752 -3.650688 4.217704 23.311033 3.792838 2.167270 13.355687 1.921464 2.797579 16.680150 2.502160 2.173169 13.365497 1.915493 0.619863 17.306205 2.881804 0.303686 -3.635213 5.039805 3.009746 2.202364 0.969306 2.959782 -18.072038 -12.979458 -76.778512 -46.154387 135.313062 3.614781 -2.499404 -20.527721 -11.330788 -0.623579 -0.756791 -1.420301 -14.604258 12.274186 63.056090 -41.009761 -127.875742 6.490454 -6.899231 4.923023 8.135806 -18.890708 0.655369 -44.479692 71.717638 -47.693327 3.221306 -13.633130 12.846560 0.014812 -0.014938 0.013580 -10.779417 -16.520362 8.766169 55.201482 81.296499 56.417911 0.175342 -17.797299 -22.703173 0.001906 0.012888 0.003177
